<svg xmlns="http://www.w3.org/2000/svg" xmlns:xlink="http://www.w3.org/1999/xlink" version="1.1" class="marks" width="723" height="397" viewBox="0 0 723 397"><rect width="723" height="397" fill="white"/><g fill="none" stroke-miterlimit="10" transform="translate(66,10)"><g class="mark-group role-frame root" role="graphics-object" aria-roledescription="group mark container"><g transform="translate(0,0)"><path class="background" aria-hidden="true" d="M0.5,0.5h650v350h-650Z" stroke="#ddd"/><g><g class="mark-group role-axis" aria-hidden="true"><g transform="translate(0.5,350.5)"><path class="background" aria-hidden="true" d="M0,0h0v0h0Z" pointer-events="none"/><g><g class="mark-rule role-axis-grid" pointer-events="none"><line transform="translate(47,-350)" x2="0" y2="350" stroke="#ddd" stroke-width="1" opacity="1"/><line transform="translate(104,-350)" x2="0" y2="350" stroke="#ddd" stroke-width="1" opacity="1"/><line transform="translate(160,-350)" x2="0" y2="350" stroke="#ddd" stroke-width="1" opacity="1"/><line transform="translate(213,-350)" x2="0" y2="350" stroke="#ddd" stroke-width="1" opacity="1"/><line transform="translate(269,-350)" x2="0" y2="350" stroke="#ddd" stroke-width="1" opacity="1"/><line transform="translate(324,-350)" x2="0" y2="350" stroke="#ddd" stroke-width="1" opacity="1"/><line transform="translate(381,-350)" x2="0" y2="350" stroke="#ddd" stroke-width="1" opacity="1"/><line transform="translate(435,-350)" x2="0" y2="350" stroke="#ddd" stroke-width="1" opacity="1"/><line transform="translate(492,-350)" x2="0" y2="350" stroke="#ddd" stroke-width="1" opacity="1"/><line transform="translate(548,-350)" x2="0" y2="350" stroke="#ddd" stroke-width="1" opacity="1"/><line transform="translate(603,-350)" x2="0" y2="350" stroke="#ddd" stroke-width="1" opacity="1"/></g></g><path class="foreground" aria-hidden="true" d="" pointer-events="none" display="none"/></g></g><g class="mark-group role-axis" aria-hidden="true"><g transform="translate(0.5,0.5)"><path class="background" aria-hidden="true" d="M0,0h0v0h0Z" pointer-events="none"/><g><g class="mark-rule role-axis-grid" pointer-events="none"><line transform="translate(0,350)" x2="650" y2="0" stroke="#ddd" stroke-width="1" opacity="1"/><line transform="translate(0,300)" x2="650" y2="0" stroke="#ddd" stroke-width="1" opacity="1"/><line transform="translate(0,250)" x2="650" y2="0" stroke="#ddd" stroke-width="1" opacity="1"/><line transform="translate(0,200)" x2="650" y2="0" stroke="#ddd" stroke-width="1" opacity="1"/><line transform="translate(0,150)" x2="650" y2="0" stroke="#ddd" stroke-width="1" opacity="1"/><line transform="translate(0,100)" x2="650" y2="0" stroke="#ddd" stroke-width="1" opacity="1"/><line transform="translate(0,50)" x2="650" y2="0" stroke="#ddd" stroke-width="1" opacity="1"/><line transform="translate(0,0)" x2="650" y2="0" stroke="#ddd" stroke-width="1" opacity="1"/></g></g><path class="foreground" aria-hidden="true" d="" pointer-events="none" display="none"/></g></g><g class="mark-group role-axis" role="graphics-symbol" aria-roledescription="axis" aria-label="X-axis titled 'Data' for a time scale with values from Sunday, 05 November 2023, 12:00:00 AM to Sunday, 27 October 2024, 12:00:00 AM"><g transform="translate(0.5,350.5)"><path class="background" aria-hidden="true" d="M0,0h0v0h0Z" pointer-events="none"/><g><g class="mark-rule role-axis-tick" pointer-events="none"><line transform="translate(47,0)" x2="0" y2="5" stroke="#888" stroke-width="1" opacity="1"/><line transform="translate(104,0)" x2="0" y2="5" stroke="#888" stroke-width="1" opacity="1"/><line transform="translate(160,0)" x2="0" y2="5" stroke="#888" stroke-width="1" opacity="1"/><line transform="translate(213,0)" x2="0" y2="5" stroke="#888" stroke-width="1" opacity="1"/><line transform="translate(269,0)" x2="0" y2="5" stroke="#888" stroke-width="1" opacity="1"/><line transform="translate(324,0)" x2="0" y2="5" stroke="#888" stroke-width="1" opacity="1"/><line transform="translate(381,0)" x2="0" y2="5" stroke="#888" stroke-width="1" opacity="1"/><line transform="translate(435,0)" x2="0" y2="5" stroke="#888" stroke-width="1" opacity="1"/><line transform="translate(492,0)" x2="0" y2="5" stroke="#888" stroke-width="1" opacity="1"/><line transform="translate(548,0)" x2="0" y2="5" stroke="#888" stroke-width="1" opacity="1"/><line transform="translate(603,0)" x2="0" y2="5" stroke="#888" stroke-width="1" opacity="1"/></g><g class="mark-text role-axis-label" pointer-events="none"><text text-anchor="middle" transform="translate(47.338935574229694,15)" font-family="sans-serif" font-size="10px" fill="#000" opacity="1">December</text><text text-anchor="middle" transform="translate(103.78151260504201,15)" font-family="sans-serif" font-size="10px" fill="#000" opacity="1">2024</text><text text-anchor="middle" transform="translate(160.22408963585434,15)" font-family="sans-serif" font-size="10px" fill="#000" opacity="1">February</text><text text-anchor="middle" transform="translate(213.0252100840336,15)" font-family="sans-serif" font-size="10px" fill="#000" opacity="1">March</text><text text-anchor="middle" transform="translate(269.467787114846,15)" font-family="sans-serif" font-size="10px" fill="#000" opacity="1">April</text><text text-anchor="middle" transform="translate(324.08963585434174,15)" font-family="sans-serif" font-size="10px" fill="#000" opacity="1">May</text><text text-anchor="middle" transform="translate(380.5322128851541,15)" font-family="sans-serif" font-size="10px" fill="#000" opacity="1">June</text><text text-anchor="middle" transform="translate(435.15406162464984,15)" font-family="sans-serif" font-size="10px" fill="#000" opacity="1">July</text><text text-anchor="middle" transform="translate(491.5966386554622,15)" font-family="sans-serif" font-size="10px" fill="#000" opacity="1">August</text><text text-anchor="middle" transform="translate(548.0392156862745,15)" font-family="sans-serif" font-size="10px" fill="#000" opacity="1">September</text><text text-anchor="middle" transform="translate(602.6610644257703,15)" font-family="sans-serif" font-size="10px" fill="#000" opacity="1">October</text></g><g class="mark-rule role-axis-domain" pointer-events="none"><line transform="translate(0,0)" x2="650" y2="0" stroke="#888" stroke-width="1" opacity="1"/></g><g class="mark-text role-axis-title" pointer-events="none"><text text-anchor="middle" transform="translate(325,30)" font-family="sans-serif" font-size="12px" font-weight="bold" fill="#000" opacity="1">Data</text></g></g><path class="foreground" aria-hidden="true" d="" pointer-events="none" display="none"/></g></g><g class="mark-group role-axis" role="graphics-symbol" aria-roledescription="axis" aria-label="Y-axis titled 'Casos acumulados' for a linear scale with values from 0 to 140,000"><g transform="translate(0.5,0.5)"><path class="background" aria-hidden="true" d="M0,0h0v0h0Z" pointer-events="none"/><g><g class="mark-rule role-axis-tick" pointer-events="none"><line transform="translate(0,350)" x2="-5" y2="0" stroke="#888" stroke-width="1" opacity="1"/><line transform="translate(0,300)" x2="-5" y2="0" stroke="#888" stroke-width="1" opacity="1"/><line transform="translate(0,250)" x2="-5" y2="0" stroke="#888" stroke-width="1" opacity="1"/><line transform="translate(0,200)" x2="-5" y2="0" stroke="#888" stroke-width="1" opacity="1"/><line transform="translate(0,150)" x2="-5" y2="0" stroke="#888" stroke-width="1" opacity="1"/><line transform="translate(0,100)" x2="-5" y2="0" stroke="#888" stroke-width="1" opacity="1"/><line transform="translate(0,50)" x2="-5" y2="0" stroke="#888" stroke-width="1" opacity="1"/><line transform="translate(0,0)" x2="-5" y2="0" stroke="#888" stroke-width="1" opacity="1"/></g><g class="mark-text role-axis-label" pointer-events="none"><text text-anchor="end" transform="translate(-7,353)" font-family="sans-serif" font-size="10px" fill="#000" opacity="1">0</text><text text-anchor="end" transform="translate(-7,303)" font-family="sans-serif" font-size="10px" fill="#000" opacity="1">20,000</text><text text-anchor="end" transform="translate(-7,253)" font-family="sans-serif" font-size="10px" fill="#000" opacity="1">40,000</text><text text-anchor="end" transform="translate(-7,203)" font-family="sans-serif" font-size="10px" fill="#000" opacity="1">60,000</text><text text-anchor="end" transform="translate(-7,153)" font-family="sans-serif" font-size="10px" fill="#000" opacity="1">80,000</text><text text-anchor="end" transform="translate(-7,103)" font-family="sans-serif" font-size="10px" fill="#000" opacity="1">100,000</text><text text-anchor="end" transform="translate(-7,53.000000000000014)" font-family="sans-serif" font-size="10px" fill="#000" opacity="1">120,000</text><text text-anchor="end" transform="translate(-7,3)" font-family="sans-serif" font-size="10px" fill="#000" opacity="1">140,000</text></g><g class="mark-rule role-axis-domain" pointer-events="none"><line transform="translate(0,350)" x2="0" y2="-350" stroke="#888" stroke-width="1" opacity="1"/></g><g class="mark-text role-axis-title" pointer-events="none"><text text-anchor="middle" transform="translate(-47.1474609375,175) rotate(-90) translate(0,-3)" font-family="sans-serif" font-size="12px" font-weight="bold" fill="#000" opacity="1">Casos acumulados</text></g></g><path class="foreground" aria-hidden="true" d="" pointer-events="none" display="none"/></g></g><g class="mark-group role-scope layer_0_pathgroup" role="graphics-object" aria-roledescription="group mark container"><g transform="translate(0,0)"><path class="background" aria-hidden="true" d="M0,0h650v350h-650Z"/><g><g class="mark-area role-mark layer_0_marks" role="graphics-object" aria-roledescription="area mark container"><path aria-label="data_iniSE: Nov 05, 2023; casos_cum: 368;  : Observado; model: 843.831029509" role="graphics-symbol" aria-roledescription="area mark" d="M0,349.08L12.745,349.08L12.745,348.53L25.49,348.53L25.49,347.585L38.235,347.585L38.235,346.4L50.98,346.4L50.98,345.165L63.725,345.165L63.725,343.86L76.471,343.86L76.471,342.965L89.216,342.965L89.216,342.393L101.961,342.393L101.961,340.335L114.706,340.335L114.706,337.857L127.451,337.857L127.451,334.71L140.196,334.71L140.196,330.023L152.941,330.023L152.941,323.773L165.686,323.773L165.686,314.595L178.431,314.595L178.431,302.905L191.176,302.905L191.176,289.185L203.922,289.185L203.922,272.998L216.667,272.998L216.667,257.005L229.412,257.005L229.412,239.225L242.157,239.225L242.157,218.465L254.902,218.465L254.902,197.808L267.647,197.808L267.647,176.388L280.392,176.388L280.392,154.918L293.137,154.918L293.137,134.353L305.882,134.353L305.882,115.625L318.627,115.625L318.627,99.178L331.373,99.178L331.373,83.768L344.118,83.768L344.118,70.833L356.863,70.833L356.863,62.967L369.608,62.967L369.608,57.548L382.353,57.548L382.353,52.145L395.098,52.145L395.098,47.473L407.843,47.473L407.843,43.615L420.588,43.615L420.588,40.907L433.333,40.907L433.333,39.14L446.078,39.14L446.078,38.18L458.824,38.18L458.824,37.478L471.569,37.478L471.569,36.635L484.314,36.635L484.314,35.952L497.059,35.952L497.059,35.237L509.804,35.237L509.804,34.343L522.549,34.343L522.549,33.322L535.294,33.322L535.294,32.288L548.039,32.288L548.039,31.08L560.784,31.08L560.784,29.74L573.529,29.74L573.529,28.422L586.275,28.422L586.275,26.93L599.02,26.93L599.02,25.528L611.765,25.528L611.765,24.163L624.51,24.163L624.51,22.525L637.255,22.525L637.255,20.927L650,20.927L650,19.147L650,350L650,350L637.255,350L637.255,350L624.51,350L624.51,350L611.765,350L611.765,350L599.02,350L599.02,350L586.275,350L586.275,350L573.529,350L573.529,350L560.784,350L560.784,350L548.039,350L548.039,350L535.294,350L535.294,350L522.549,350L522.549,350L509.804,350L509.804,350L497.059,350L497.059,350L484.314,350L484.314,350L471.569,350L471.569,350L458.824,350L458.824,350L446.078,350L446.078,350L433.333,350L433.333,350L420.588,350L420.588,350L407.843,350L407.843,350L395.098,350L395.098,350L382.353,350L382.353,350L369.608,350L369.608,350L356.863,350L356.863,350L344.118,350L344.118,350L331.373,350L331.373,350L318.627,350L318.627,350L305.882,350L305.882,350L293.137,350L293.137,350L280.392,350L280.392,350L267.647,350L267.647,350L254.902,350L254.902,350L242.157,350L242.157,350L229.412,350L229.412,350L216.667,350L216.667,350L203.922,350L203.922,350L191.176,350L191.176,350L178.431,350L178.431,350L165.686,350L165.686,350L152.941,350L152.941,350L140.196,350L140.196,350L127.451,350L127.451,350L114.706,350L114.706,350L101.961,350L101.961,350L89.216,350L89.216,350L76.471,350L76.471,350L63.725,350L63.725,350L50.98,350L50.98,350L38.235,350L38.235,350L25.49,350L25.49,350L12.745,350L12.745,350L0,350Z" fill="#1f77b4" opacity="0.3"/></g></g><path class="foreground" aria-hidden="true" d="" display="none"/></g></g><g class="mark-group role-scope layer_1_pathgroup" role="graphics-object" aria-roledescription="group mark container"><g transform="translate(0,0)"><path class="background" aria-hidden="true" d="M0,0h650v350h-650Z"/><g><g class="mark-line role-mark layer_1_marks" role="graphics-object" aria-roledescription="line mark container"><path aria-label="data_iniSE: Nov 05, 2023; model: 843.831029509;  : Modelo; casos_cum: 368" role="graphics-symbol" aria-roledescription="line mark" d="M0,347.89L12.745,347.353L25.49,346.681L38.235,345.839L50.98,344.785L63.725,343.47L76.471,341.828L89.216,339.783L101.961,337.242L114.706,334.093L127.451,330.202L140.196,325.415L152.941,319.555L165.686,312.429L178.431,303.828L191.176,293.548L203.922,281.402L216.667,267.252L229.412,251.045L242.157,232.849L254.902,212.894L267.647,191.597L280.392,169.56L293.137,147.529L305.882,126.318L318.627,106.703L331.373,89.311L344.118,74.535L356.863,62.504L369.608,53.102L382.353,46.033L395.098,40.906L407.843,37.306L420.588,34.849L433.333,33.213L446.078,32.148L458.824,31.466L471.569,31.036L484.314,30.768L497.059,30.603L509.804,30.503L522.549,30.442L535.294,30.405L548.039,30.383L560.784,30.369L573.529,30.362L586.275,30.357L599.02,30.354L611.765,30.352L624.51,30.351L637.255,30.351L650,30.35" stroke="red" stroke-width="2"/></g></g><path class="foreground" aria-hidden="true" d="" display="none"/></g></g><g class="mark-rule role-mark layer_2_marks" role="graphics-object" aria-roledescription="rule mark container"><line aria-label="data_iniSE: Apr 07, 2024; label: Semana de pico" role="graphics-symbol" aria-roledescription="rule mark" transform="translate(280.39215686274514,0)" x2="0" y2="350" stroke="#ff7f0e" stroke-width="2"/></g><g class="mark-group role-legend" role="graphics-symbol" aria-roledescription="legend" aria-label="Symbol legend titled ' ' for fill color and stroke color with 3 values: Observado, Modelo, Semana de pico"><g transform="translate(17,0)"><path class="background" aria-hidden="true" d="M0,0h89v61h-89Z" pointer-events="none"/><g><g class="mark-group role-legend-entry"><g transform="translate(0,16)"><path class="background" aria-hidden="true" d="M0,0h0v0h0Z" pointer-events="none"/><g><g class="mark-group role-scope" role="graphics-object" aria-roledescription="group mark container"><g transform="translate(0,0)"><path class="background" aria-hidden="true" d="M0,0h88.2705078125v12.5h-88.2705078125Z" pointer-events="none" opacity="1"/><g><g class="mark-symbol role-legend-symbol" pointer-events="none"><path transform="translate(6,6)" d="M5,0A5,5,0,1,1,-5,0A5,5,0,1,1,5,0" fill="#1f77b4" stroke="#1f77b4" stroke-width="1.5" opacity="0.3"/></g><g class="mark-text role-legend-label" pointer-events="none"><text text-anchor="start" transform="translate(16,9)" font-family="sans-serif" font-size="10px" fill="#000" opacity="1">Observado</text></g></g><path class="foreground" aria-hidden="true" d="" pointer-events="none" display="none"/></g><g transform="translate(0,16)"><path class="background" aria-hidden="true" d="M0,0h88.2705078125v12.5h-88.2705078125Z" pointer-events="none" opacity="1"/><g><g class="mark-symbol role-legend-symbol" pointer-events="none"><path transform="translate(6,6)" d="M5,0A5,5,0,1,1,-5,0A5,5,0,1,1,5,0" fill="red" stroke="red" stroke-width="1.5" opacity="0.3"/></g><g class="mark-text role-legend-label" pointer-events="none"><text text-anchor="start" transform="translate(16,9)" font-family="sans-serif" font-size="10px" fill="#000" opacity="1">Modelo</text></g></g><path class="foreground" aria-hidden="true" d="" pointer-events="none" display="none"/></g><g transform="translate(0,32)"><path class="background" aria-hidden="true" d="M0,0h88.2705078125v12.5h-88.2705078125Z" pointer-events="none" opacity="1"/><g><g class="mark-symbol role-legend-symbol" pointer-events="none"><path transform="translate(6,6)" d="M5,0A5,5,0,1,1,-5,0A5,5,0,1,1,5,0" fill="#ff7f0e" stroke="#ff7f0e" stroke-width="1.5" opacity="0.3"/></g><g class="mark-text role-legend-label" pointer-events="none"><text text-anchor="start" transform="translate(16,9)" font-family="sans-serif" font-size="10px" fill="#000" opacity="1">Semana de pico</text></g></g><path class="foreground" aria-hidden="true" d="" pointer-events="none" display="none"/></g></g></g><path class="foreground" aria-hidden="true" d="" pointer-events="none" display="none"/></g></g><g class="mark-text role-legend-title" pointer-events="none"><text text-anchor="start" transform="translate(0,9)" font-family="sans-serif" font-size="11px" font-weight="bold" fill="#000" opacity="1"/></g></g><path class="foreground" aria-hidden="true" d="" pointer-events="none" display="none"/></g></g></g><path class="foreground" aria-hidden="true" d="" display="none"/></g></g></g></svg>
