<?xml version="1.0" encoding="utf-8" standalone="no"?>
<!DOCTYPE svg PUBLIC "-//W3C//DTD SVG 1.1//EN"
  "http://www.w3.org/Graphics/SVG/1.1/DTD/svg11.dtd">
<svg xmlns:xlink="http://www.w3.org/1999/xlink" width="607.990625pt" height="323.39625pt" viewBox="0 0 607.990625 323.39625" xmlns="http://www.w3.org/2000/svg" version="1.1">
 <metadata>
  <rdf:RDF xmlns:dc="http://purl.org/dc/elements/1.1/" xmlns:cc="http://creativecommons.org/ns#" xmlns:rdf="http://www.w3.org/1999/02/22-rdf-syntax-ns#">
   <cc:Work>
    <dc:type rdf:resource="http://purl.org/dc/dcmitype/StillImage"/>
    <dc:date>2026-06-18T13:49:19.747327</dc:date>
    <dc:format>image/svg+xml</dc:format>
    <dc:creator>
     <cc:Agent>
      <dc:title>Matplotlib v3.10.9, https://matplotlib.org/</dc:title>
     </cc:Agent>
    </dc:creator>
   </cc:Work>
  </rdf:RDF>
 </metadata>
 <defs>
  <style type="text/css">*{stroke-linejoin: round; stroke-linecap: butt}</style>
 </defs>
 <g id="figure_1" style="fill: #eaf4ff">
  <g id="patch_1">
   <path d="M 0 323.39625 
L 607.990625 323.39625 
L 607.990625 0 
L 0 0 
z
" style="fill: none"/>
  </g>
  <g id="axes_1">
   <g id="patch_2">
    <path d="M 42.790625 299.518125 
L 600.790625 299.518125 
L 600.790625 22.318125 
L 42.790625 22.318125 
z
" style="fill: none"/>
   </g>
   <g id="FillBetweenPolyCollection_1">
    <path d="M 68.154261 177.548136 
L 68.154261 120.653646 
L 70.674366 139.434352 
L 72.95059 143.853341 
L 75.470695 172.576773 
L 75.470695 177.548136 
L 75.470695 177.548136 
L 72.95059 177.548136 
L 70.674366 177.548136 
L 68.154261 177.548136 
z
" clip-path="url(#pc43946bcdc)" style="fill: #ff0000; fill-opacity: 0.5; stroke: #ff0000; stroke-opacity: 0.5"/>
    <path d="M 144.814226 177.548136 
L 144.814226 167.605409 
L 144.814226 177.548136 
L 144.814226 177.548136 
z
" clip-path="url(#pc43946bcdc)" style="fill: #ff0000; fill-opacity: 0.5; stroke: #ff0000; stroke-opacity: 0.5"/>
    <path d="M 211.637653 177.548136 
L 211.637653 163.738794 
L 214.076464 170.367278 
L 216.596569 176.995762 
L 219.116674 163.738794 
L 219.116674 177.548136 
L 219.116674 177.548136 
L 216.596569 177.548136 
L 214.076464 177.548136 
L 211.637653 177.548136 
z
" clip-path="url(#pc43946bcdc)" style="fill: #ff0000; fill-opacity: 0.5; stroke: #ff0000; stroke-opacity: 0.5"/>
    <path d="M 223.913003 177.548136 
L 223.913003 159.872178 
L 226.351814 159.319804 
L 228.871919 148.824704 
L 231.31073 135.567736 
L 233.830835 114.025162 
L 236.35094 106.291931 
L 238.789751 83.092236 
L 241.309856 54.921178 
L 243.748667 73.14951 
L 246.268772 68.73052 
L 248.788877 81.987489 
L 251.146394 116.234657 
L 253.666499 151.034199 
L 253.666499 177.548136 
L 253.666499 177.548136 
L 251.146394 177.548136 
L 248.788877 177.548136 
L 246.268772 177.548136 
L 243.748667 177.548136 
L 241.309856 177.548136 
L 238.789751 177.548136 
L 236.35094 177.548136 
L 233.830835 177.548136 
L 231.31073 177.548136 
L 228.871919 177.548136 
L 226.351814 177.548136 
L 223.913003 177.548136 
z
" clip-path="url(#pc43946bcdc)" style="fill: #ff0000; fill-opacity: 0.5; stroke: #ff0000; stroke-opacity: 0.5"/>
    <path d="M 327.887653 177.548136 
L 327.887653 157.662683 
L 330.407758 157.662683 
L 332.846569 155.453188 
L 335.366674 168.157783 
L 337.886779 165.948288 
L 340.163003 151.586573 
L 342.683108 165.395915 
L 345.121919 163.738794 
L 347.642024 172.024399 
L 347.642024 177.548136 
L 347.642024 177.548136 
L 345.121919 177.548136 
L 342.683108 177.548136 
L 340.163003 177.548136 
L 337.886779 177.548136 
L 335.366674 177.548136 
L 332.846569 177.548136 
L 330.407758 177.548136 
L 327.887653 177.548136 
z
" clip-path="url(#pc43946bcdc)" style="fill: #ff0000; fill-opacity: 0.5; stroke: #ff0000; stroke-opacity: 0.5"/>
    <path d="M 357.559856 177.548136 
L 357.559856 176.443388 
L 357.559856 177.548136 
L 357.559856 177.548136 
z
" clip-path="url(#pc43946bcdc)" style="fill: #ff0000; fill-opacity: 0.5; stroke: #ff0000; stroke-opacity: 0.5"/>
    <path d="M 365.038877 177.548136 
L 365.038877 176.443388 
L 365.038877 177.548136 
L 365.038877 177.548136 
z
" clip-path="url(#pc43946bcdc)" style="fill: #ff0000; fill-opacity: 0.5; stroke: #ff0000; stroke-opacity: 0.5"/>
    <path d="M 466.412128 177.548136 
L 466.412128 156.557936 
L 468.85094 146.062836 
L 471.371045 133.358241 
L 473.891149 120.653646 
L 476.329961 117.339404 
L 478.850066 100.21582 
L 481.288877 95.244457 
L 483.808982 106.844304 
L 486.329087 120.653646 
L 488.686604 136.672483 
L 491.206709 160.424552 
L 491.206709 177.548136 
L 491.206709 177.548136 
L 488.686604 177.548136 
L 486.329087 177.548136 
L 483.808982 177.548136 
L 481.288877 177.548136 
L 478.850066 177.548136 
L 476.329961 177.548136 
L 473.891149 177.548136 
L 471.371045 177.548136 
L 468.85094 177.548136 
L 466.412128 177.548136 
z
" clip-path="url(#pc43946bcdc)" style="fill: #ff0000; fill-opacity: 0.5; stroke: #ff0000; stroke-opacity: 0.5"/>
   </g>
   <g id="FillBetweenPolyCollection_2">
    <path d="M 80.429611 232.785504 
L 80.429611 235.547372 
L 82.868422 255.985199 
L 85.388527 272.004036 
L 87.908632 277.527772 
L 90.347443 283.051509 
L 92.867548 284.70863 
L 95.306359 272.004036 
L 97.826464 286.918125 
L 100.346569 270.899288 
L 102.622793 251.013836 
L 105.142898 247.14722 
L 105.142898 232.785504 
L 105.142898 232.785504 
L 102.622793 232.785504 
L 100.346569 232.785504 
L 97.826464 232.785504 
L 95.306359 232.785504 
L 92.867548 232.785504 
L 90.347443 232.785504 
L 87.908632 232.785504 
L 85.388527 232.785504 
L 82.868422 232.785504 
L 80.429611 232.785504 
z
" clip-path="url(#pc43946bcdc)" style="fill: #1f77b4; fill-opacity: 0.5; stroke: #1f77b4; stroke-opacity: 0.5"/>
    <path d="M 117.580835 232.785504 
L 117.580835 242.175857 
L 120.019646 244.385351 
L 122.539751 259.299441 
L 124.978562 259.851815 
L 127.498667 241.071109 
L 130.018772 235.547372 
L 130.018772 232.785504 
L 130.018772 232.785504 
L 127.498667 232.785504 
L 124.978562 232.785504 
L 122.539751 232.785504 
L 120.019646 232.785504 
L 117.580835 232.785504 
z
" clip-path="url(#pc43946bcdc)" style="fill: #1f77b4; fill-opacity: 0.5; stroke: #1f77b4; stroke-opacity: 0.5"/>
    <path d="M 134.896394 232.785504 
L 134.896394 233.337878 
L 134.896394 232.785504 
L 134.896394 232.785504 
z
" clip-path="url(#pc43946bcdc)" style="fill: #1f77b4; fill-opacity: 0.5; stroke: #1f77b4; stroke-opacity: 0.5"/>
    <path d="M 189.444471 232.785504 
L 189.444471 252.118583 
L 189.444471 232.785504 
L 189.444471 232.785504 
z
" clip-path="url(#pc43946bcdc)" style="fill: #1f77b4; fill-opacity: 0.5; stroke: #1f77b4; stroke-opacity: 0.5"/>
    <path d="M 268.543247 232.785504 
L 268.543247 243.832978 
L 271.063352 240.518736 
L 271.063352 232.785504 
L 271.063352 232.785504 
L 268.543247 232.785504 
z
" clip-path="url(#pc43946bcdc)" style="fill: #1f77b4; fill-opacity: 0.5; stroke: #1f77b4; stroke-opacity: 0.5"/>
    <path d="M 300.735555 232.785504 
L 300.735555 255.432825 
L 303.174366 256.537572 
L 305.694471 243.832978 
L 308.214576 242.175857 
L 310.4908 245.490099 
L 310.4908 232.785504 
L 310.4908 232.785504 
L 308.214576 232.785504 
L 305.694471 232.785504 
L 303.174366 232.785504 
L 300.735555 232.785504 
z
" clip-path="url(#pc43946bcdc)" style="fill: #1f77b4; fill-opacity: 0.5; stroke: #1f77b4; stroke-opacity: 0.5"/>
    <path d="M 382.354436 232.785504 
L 382.354436 233.890251 
L 384.874541 240.518736 
L 387.313352 267.585046 
L 389.833457 273.108783 
L 392.272268 259.851815 
L 394.792373 254.880451 
L 397.312478 253.22333 
L 399.588702 235.547372 
L 402.108807 236.65212 
L 402.108807 232.785504 
L 402.108807 232.785504 
L 399.588702 232.785504 
L 397.312478 232.785504 
L 394.792373 232.785504 
L 392.272268 232.785504 
L 389.833457 232.785504 
L 387.313352 232.785504 
L 384.874541 232.785504 
L 382.354436 232.785504 
z
" clip-path="url(#pc43946bcdc)" style="fill: #1f77b4; fill-opacity: 0.5; stroke: #1f77b4; stroke-opacity: 0.5"/>
    <path d="M 416.985555 232.785504 
L 416.985555 247.699593 
L 419.50566 252.118583 
L 421.944471 263.166057 
L 424.464576 251.013836 
L 426.984681 244.385351 
L 429.260905 254.328078 
L 431.78101 257.64232 
L 434.219821 263.166057 
L 436.739926 242.72823 
L 439.178737 239.413988 
L 441.698842 259.299441 
L 444.218947 256.537572 
L 446.657758 252.118583 
L 449.177863 256.537572 
L 451.616674 251.566209 
L 454.136779 243.280604 
L 454.136779 232.785504 
L 454.136779 232.785504 
L 451.616674 232.785504 
L 449.177863 232.785504 
L 446.657758 232.785504 
L 444.218947 232.785504 
L 441.698842 232.785504 
L 439.178737 232.785504 
L 436.739926 232.785504 
L 434.219821 232.785504 
L 431.78101 232.785504 
L 429.260905 232.785504 
L 426.984681 232.785504 
L 424.464576 232.785504 
L 421.944471 232.785504 
L 419.50566 232.785504 
L 416.985555 232.785504 
z
" clip-path="url(#pc43946bcdc)" style="fill: #1f77b4; fill-opacity: 0.5; stroke: #1f77b4; stroke-opacity: 0.5"/>
    <path d="M 511.042373 232.785504 
L 511.042373 239.413988 
L 513.562478 244.385351 
L 513.562478 232.785504 
L 513.562478 232.785504 
L 511.042373 232.785504 
z
" clip-path="url(#pc43946bcdc)" style="fill: #1f77b4; fill-opacity: 0.5; stroke: #1f77b4; stroke-opacity: 0.5"/>
    <path d="M 538.275765 232.785504 
L 538.275765 242.72823 
L 540.714576 238.861615 
L 543.234681 234.994999 
L 543.234681 232.785504 
L 543.234681 232.785504 
L 540.714576 232.785504 
L 538.275765 232.785504 
z
" clip-path="url(#pc43946bcdc)" style="fill: #1f77b4; fill-opacity: 0.5; stroke: #1f77b4; stroke-opacity: 0.5"/>
   </g>
   <g id="matplotlib.axis_1">
    <g id="xtick_1">
     <g id="line2d_1">
      <path d="M 68.154261 299.518125 
L 68.154261 22.318125 
" clip-path="url(#pc43946bcdc)" style="fill: none; stroke: #b0b0b0; stroke-width: 0.8; stroke-linecap: square"/>
     </g>
     <g id="line2d_2">
      <defs>
       <path id="mebd058277b" d="M 0 0 
L 0 3.5 
" style="stroke: #eaf4ff; stroke-width: 0.8"/>
      </defs>
      <g>
       <use xlink:href="#mebd058277b" x="68.154261" y="299.518125" style="stroke: #eaf4ff; stroke-width: 0.8"/>
      </g>
     </g>
     <g id="text_1">
      <!-- 2010 -->
      <g transform="translate(55.429261 314.116563) scale(0.1 -0.1)">
       <defs>
        <path id="DejaVuSans-32" d="M 1228 531 
L 3431 531 
L 3431 0 
L 469 0 
L 469 531 
Q 828 903 1448 1529 
Q 2069 2156 2228 2338 
Q 2531 2678 2651 2914 
Q 2772 3150 2772 3378 
Q 2772 3750 2511 3984 
Q 2250 4219 1831 4219 
Q 1534 4219 1204 4116 
Q 875 4013 500 3803 
L 500 4441 
Q 881 4594 1212 4672 
Q 1544 4750 1819 4750 
Q 2544 4750 2975 4387 
Q 3406 4025 3406 3419 
Q 3406 3131 3298 2873 
Q 3191 2616 2906 2266 
Q 2828 2175 2409 1742 
Q 1991 1309 1228 531 
z
" transform="scale(0.015625)"/>
        <path id="DejaVuSans-30" d="M 2034 4250 
Q 1547 4250 1301 3770 
Q 1056 3291 1056 2328 
Q 1056 1369 1301 889 
Q 1547 409 2034 409 
Q 2525 409 2770 889 
Q 3016 1369 3016 2328 
Q 3016 3291 2770 3770 
Q 2525 4250 2034 4250 
z
M 2034 4750 
Q 2819 4750 3233 4129 
Q 3647 3509 3647 2328 
Q 3647 1150 3233 529 
Q 2819 -91 2034 -91 
Q 1250 -91 836 529 
Q 422 1150 422 2328 
Q 422 3509 836 4129 
Q 1250 4750 2034 4750 
z
" transform="scale(0.015625)"/>
        <path id="DejaVuSans-31" d="M 794 531 
L 1825 531 
L 1825 4091 
L 703 3866 
L 703 4441 
L 1819 4666 
L 2450 4666 
L 2450 531 
L 3481 531 
L 3481 0 
L 794 0 
L 794 531 
z
" transform="scale(0.015625)"/>
       </defs>
       <use xlink:href="#DejaVuSans-32"/>
       <use xlink:href="#DejaVuSans-30" transform="translate(63.623047 0)"/>
       <use xlink:href="#DejaVuSans-31" transform="translate(127.246094 0)"/>
       <use xlink:href="#DejaVuSans-30" transform="translate(190.869141 0)"/>
      </g>
     </g>
    </g>
    <g id="xtick_2">
     <g id="line2d_3">
      <path d="M 127.498667 299.518125 
L 127.498667 22.318125 
" clip-path="url(#pc43946bcdc)" style="fill: none; stroke: #b0b0b0; stroke-width: 0.8; stroke-linecap: square"/>
     </g>
     <g id="line2d_4">
      <g>
       <use xlink:href="#mebd058277b" x="127.498667" y="299.518125" style="stroke: #eaf4ff; stroke-width: 0.8"/>
      </g>
     </g>
     <g id="text_2">
      <!-- 2012 -->
      <g transform="translate(114.773667 314.116563) scale(0.1 -0.1)">
       <use xlink:href="#DejaVuSans-32"/>
       <use xlink:href="#DejaVuSans-30" transform="translate(63.623047 0)"/>
       <use xlink:href="#DejaVuSans-31" transform="translate(127.246094 0)"/>
       <use xlink:href="#DejaVuSans-32" transform="translate(190.869141 0)"/>
      </g>
     </g>
    </g>
    <g id="xtick_3">
     <g id="line2d_5">
      <path d="M 186.924366 299.518125 
L 186.924366 22.318125 
" clip-path="url(#pc43946bcdc)" style="fill: none; stroke: #b0b0b0; stroke-width: 0.8; stroke-linecap: square"/>
     </g>
     <g id="line2d_6">
      <g>
       <use xlink:href="#mebd058277b" x="186.924366" y="299.518125" style="stroke: #eaf4ff; stroke-width: 0.8"/>
      </g>
     </g>
     <g id="text_3">
      <!-- 2014 -->
      <g transform="translate(174.199366 314.116563) scale(0.1 -0.1)">
       <defs>
        <path id="DejaVuSans-34" d="M 2419 4116 
L 825 1625 
L 2419 1625 
L 2419 4116 
z
M 2253 4666 
L 3047 4666 
L 3047 1625 
L 3713 1625 
L 3713 1100 
L 3047 1100 
L 3047 0 
L 2419 0 
L 2419 1100 
L 313 1100 
L 313 1709 
L 2253 4666 
z
" transform="scale(0.015625)"/>
       </defs>
       <use xlink:href="#DejaVuSans-32"/>
       <use xlink:href="#DejaVuSans-30" transform="translate(63.623047 0)"/>
       <use xlink:href="#DejaVuSans-31" transform="translate(127.246094 0)"/>
       <use xlink:href="#DejaVuSans-34" transform="translate(190.869141 0)"/>
      </g>
     </g>
    </g>
    <g id="xtick_4">
     <g id="line2d_7">
      <path d="M 246.268772 299.518125 
L 246.268772 22.318125 
" clip-path="url(#pc43946bcdc)" style="fill: none; stroke: #b0b0b0; stroke-width: 0.8; stroke-linecap: square"/>
     </g>
     <g id="line2d_8">
      <g>
       <use xlink:href="#mebd058277b" x="246.268772" y="299.518125" style="stroke: #eaf4ff; stroke-width: 0.8"/>
      </g>
     </g>
     <g id="text_4">
      <!-- 2016 -->
      <g transform="translate(233.543772 314.116563) scale(0.1 -0.1)">
       <defs>
        <path id="DejaVuSans-36" d="M 2113 2584 
Q 1688 2584 1439 2293 
Q 1191 2003 1191 1497 
Q 1191 994 1439 701 
Q 1688 409 2113 409 
Q 2538 409 2786 701 
Q 3034 994 3034 1497 
Q 3034 2003 2786 2293 
Q 2538 2584 2113 2584 
z
M 3366 4563 
L 3366 3988 
Q 3128 4100 2886 4159 
Q 2644 4219 2406 4219 
Q 1781 4219 1451 3797 
Q 1122 3375 1075 2522 
Q 1259 2794 1537 2939 
Q 1816 3084 2150 3084 
Q 2853 3084 3261 2657 
Q 3669 2231 3669 1497 
Q 3669 778 3244 343 
Q 2819 -91 2113 -91 
Q 1303 -91 875 529 
Q 447 1150 447 2328 
Q 447 3434 972 4092 
Q 1497 4750 2381 4750 
Q 2619 4750 2861 4703 
Q 3103 4656 3366 4563 
z
" transform="scale(0.015625)"/>
       </defs>
       <use xlink:href="#DejaVuSans-32"/>
       <use xlink:href="#DejaVuSans-30" transform="translate(63.623047 0)"/>
       <use xlink:href="#DejaVuSans-31" transform="translate(127.246094 0)"/>
       <use xlink:href="#DejaVuSans-36" transform="translate(190.869141 0)"/>
      </g>
     </g>
    </g>
    <g id="xtick_5">
     <g id="line2d_9">
      <path d="M 305.694471 299.518125 
L 305.694471 22.318125 
" clip-path="url(#pc43946bcdc)" style="fill: none; stroke: #b0b0b0; stroke-width: 0.8; stroke-linecap: square"/>
     </g>
     <g id="line2d_10">
      <g>
       <use xlink:href="#mebd058277b" x="305.694471" y="299.518125" style="stroke: #eaf4ff; stroke-width: 0.8"/>
      </g>
     </g>
     <g id="text_5">
      <!-- 2018 -->
      <g transform="translate(292.969471 314.116563) scale(0.1 -0.1)">
       <defs>
        <path id="DejaVuSans-38" d="M 2034 2216 
Q 1584 2216 1326 1975 
Q 1069 1734 1069 1313 
Q 1069 891 1326 650 
Q 1584 409 2034 409 
Q 2484 409 2743 651 
Q 3003 894 3003 1313 
Q 3003 1734 2745 1975 
Q 2488 2216 2034 2216 
z
M 1403 2484 
Q 997 2584 770 2862 
Q 544 3141 544 3541 
Q 544 4100 942 4425 
Q 1341 4750 2034 4750 
Q 2731 4750 3128 4425 
Q 3525 4100 3525 3541 
Q 3525 3141 3298 2862 
Q 3072 2584 2669 2484 
Q 3125 2378 3379 2068 
Q 3634 1759 3634 1313 
Q 3634 634 3220 271 
Q 2806 -91 2034 -91 
Q 1263 -91 848 271 
Q 434 634 434 1313 
Q 434 1759 690 2068 
Q 947 2378 1403 2484 
z
M 1172 3481 
Q 1172 3119 1398 2916 
Q 1625 2713 2034 2713 
Q 2441 2713 2670 2916 
Q 2900 3119 2900 3481 
Q 2900 3844 2670 4047 
Q 2441 4250 2034 4250 
Q 1625 4250 1398 4047 
Q 1172 3844 1172 3481 
z
" transform="scale(0.015625)"/>
       </defs>
       <use xlink:href="#DejaVuSans-32"/>
       <use xlink:href="#DejaVuSans-30" transform="translate(63.623047 0)"/>
       <use xlink:href="#DejaVuSans-31" transform="translate(127.246094 0)"/>
       <use xlink:href="#DejaVuSans-38" transform="translate(190.869141 0)"/>
      </g>
     </g>
    </g>
    <g id="xtick_6">
     <g id="line2d_11">
      <path d="M 365.038877 299.518125 
L 365.038877 22.318125 
" clip-path="url(#pc43946bcdc)" style="fill: none; stroke: #b0b0b0; stroke-width: 0.8; stroke-linecap: square"/>
     </g>
     <g id="line2d_12">
      <g>
       <use xlink:href="#mebd058277b" x="365.038877" y="299.518125" style="stroke: #eaf4ff; stroke-width: 0.8"/>
      </g>
     </g>
     <g id="text_6">
      <!-- 2020 -->
      <g transform="translate(352.313877 314.116563) scale(0.1 -0.1)">
       <use xlink:href="#DejaVuSans-32"/>
       <use xlink:href="#DejaVuSans-30" transform="translate(63.623047 0)"/>
       <use xlink:href="#DejaVuSans-32" transform="translate(127.246094 0)"/>
       <use xlink:href="#DejaVuSans-30" transform="translate(190.869141 0)"/>
      </g>
     </g>
    </g>
    <g id="xtick_7">
     <g id="line2d_13">
      <path d="M 424.464576 299.518125 
L 424.464576 22.318125 
" clip-path="url(#pc43946bcdc)" style="fill: none; stroke: #b0b0b0; stroke-width: 0.8; stroke-linecap: square"/>
     </g>
     <g id="line2d_14">
      <g>
       <use xlink:href="#mebd058277b" x="424.464576" y="299.518125" style="stroke: #eaf4ff; stroke-width: 0.8"/>
      </g>
     </g>
     <g id="text_7">
      <!-- 2022 -->
      <g transform="translate(411.739576 314.116563) scale(0.1 -0.1)">
       <use xlink:href="#DejaVuSans-32"/>
       <use xlink:href="#DejaVuSans-30" transform="translate(63.623047 0)"/>
       <use xlink:href="#DejaVuSans-32" transform="translate(127.246094 0)"/>
       <use xlink:href="#DejaVuSans-32" transform="translate(190.869141 0)"/>
      </g>
     </g>
    </g>
    <g id="xtick_8">
     <g id="line2d_15">
      <path d="M 483.808982 299.518125 
L 483.808982 22.318125 
" clip-path="url(#pc43946bcdc)" style="fill: none; stroke: #b0b0b0; stroke-width: 0.8; stroke-linecap: square"/>
     </g>
     <g id="line2d_16">
      <g>
       <use xlink:href="#mebd058277b" x="483.808982" y="299.518125" style="stroke: #eaf4ff; stroke-width: 0.8"/>
      </g>
     </g>
     <g id="text_8">
      <!-- 2024 -->
      <g transform="translate(471.083982 314.116563) scale(0.1 -0.1)">
       <use xlink:href="#DejaVuSans-32"/>
       <use xlink:href="#DejaVuSans-30" transform="translate(63.623047 0)"/>
       <use xlink:href="#DejaVuSans-32" transform="translate(127.246094 0)"/>
       <use xlink:href="#DejaVuSans-34" transform="translate(190.869141 0)"/>
      </g>
     </g>
    </g>
    <g id="xtick_9">
     <g id="line2d_17">
      <path d="M 543.234681 299.518125 
L 543.234681 22.318125 
" clip-path="url(#pc43946bcdc)" style="fill: none; stroke: #b0b0b0; stroke-width: 0.8; stroke-linecap: square"/>
     </g>
     <g id="line2d_18">
      <g>
       <use xlink:href="#mebd058277b" x="543.234681" y="299.518125" style="stroke: #eaf4ff; stroke-width: 0.8"/>
      </g>
     </g>
     <g id="text_9">
      <!-- 2026 -->
      <g transform="translate(530.509681 314.116563) scale(0.1 -0.1)">
       <use xlink:href="#DejaVuSans-32"/>
       <use xlink:href="#DejaVuSans-30" transform="translate(63.623047 0)"/>
       <use xlink:href="#DejaVuSans-32" transform="translate(127.246094 0)"/>
       <use xlink:href="#DejaVuSans-36" transform="translate(190.869141 0)"/>
      </g>
     </g>
    </g>
   </g>
   <g id="matplotlib.axis_2">
    <g id="ytick_1">
     <g id="line2d_19">
      <path d="M 42.790625 260.404188 
L 600.790625 260.404188 
" clip-path="url(#pc43946bcdc)" style="fill: none; stroke: #b0b0b0; stroke-width: 0.8; stroke-linecap: square"/>
     </g>
     <g id="line2d_20">
      <defs>
       <path id="ma6f4b72581" d="M 0 0 
L -3.5 0 
" style="stroke: #eaf4ff; stroke-width: 0.8"/>
      </defs>
      <g>
       <use xlink:href="#ma6f4b72581" x="42.790625" y="260.404188" style="stroke: #eaf4ff; stroke-width: 0.8"/>
      </g>
     </g>
     <g id="text_10">
      <!-- −1 -->
      <g transform="translate(21.048437 264.203407) scale(0.1 -0.1)">
       <defs>
        <path id="DejaVuSans-2212" d="M 678 2272 
L 4684 2272 
L 4684 1741 
L 678 1741 
L 678 2272 
z
" transform="scale(0.015625)"/>
       </defs>
       <use xlink:href="#DejaVuSans-2212"/>
       <use xlink:href="#DejaVuSans-31" transform="translate(83.789062 0)"/>
      </g>
     </g>
    </g>
    <g id="ytick_2">
     <g id="line2d_21">
      <path d="M 42.790625 205.16682 
L 600.790625 205.16682 
" clip-path="url(#pc43946bcdc)" style="fill: none; stroke: #b0b0b0; stroke-width: 0.8; stroke-linecap: square"/>
     </g>
     <g id="line2d_22">
      <g>
       <use xlink:href="#ma6f4b72581" x="42.790625" y="205.16682" style="stroke: #eaf4ff; stroke-width: 0.8"/>
      </g>
     </g>
     <g id="text_11">
      <!-- 0 -->
      <g transform="translate(29.428125 208.966039) scale(0.1 -0.1)">
       <use xlink:href="#DejaVuSans-30"/>
      </g>
     </g>
    </g>
    <g id="ytick_3">
     <g id="line2d_23">
      <path d="M 42.790625 149.929452 
L 600.790625 149.929452 
" clip-path="url(#pc43946bcdc)" style="fill: none; stroke: #b0b0b0; stroke-width: 0.8; stroke-linecap: square"/>
     </g>
     <g id="line2d_24">
      <g>
       <use xlink:href="#ma6f4b72581" x="42.790625" y="149.929452" style="stroke: #eaf4ff; stroke-width: 0.8"/>
      </g>
     </g>
     <g id="text_12">
      <!-- 1 -->
      <g transform="translate(29.428125 153.72867) scale(0.1 -0.1)">
       <use xlink:href="#DejaVuSans-31"/>
      </g>
     </g>
    </g>
    <g id="ytick_4">
     <g id="line2d_25">
      <path d="M 42.790625 94.692083 
L 600.790625 94.692083 
" clip-path="url(#pc43946bcdc)" style="fill: none; stroke: #b0b0b0; stroke-width: 0.8; stroke-linecap: square"/>
     </g>
     <g id="line2d_26">
      <g>
       <use xlink:href="#ma6f4b72581" x="42.790625" y="94.692083" style="stroke: #eaf4ff; stroke-width: 0.8"/>
      </g>
     </g>
     <g id="text_13">
      <!-- 2 -->
      <g transform="translate(29.428125 98.491302) scale(0.1 -0.1)">
       <use xlink:href="#DejaVuSans-32"/>
      </g>
     </g>
    </g>
    <g id="ytick_5">
     <g id="line2d_27">
      <path d="M 42.790625 39.454715 
L 600.790625 39.454715 
" clip-path="url(#pc43946bcdc)" style="fill: none; stroke: #b0b0b0; stroke-width: 0.8; stroke-linecap: square"/>
     </g>
     <g id="line2d_28">
      <g>
       <use xlink:href="#ma6f4b72581" x="42.790625" y="39.454715" style="stroke: #eaf4ff; stroke-width: 0.8"/>
      </g>
     </g>
     <g id="text_14">
      <!-- 3 -->
      <g transform="translate(29.428125 43.253934) scale(0.1 -0.1)">
       <defs>
        <path id="DejaVuSans-33" d="M 2597 2516 
Q 3050 2419 3304 2112 
Q 3559 1806 3559 1356 
Q 3559 666 3084 287 
Q 2609 -91 1734 -91 
Q 1441 -91 1130 -33 
Q 819 25 488 141 
L 488 750 
Q 750 597 1062 519 
Q 1375 441 1716 441 
Q 2309 441 2620 675 
Q 2931 909 2931 1356 
Q 2931 1769 2642 2001 
Q 2353 2234 1838 2234 
L 1294 2234 
L 1294 2753 
L 1863 2753 
Q 2328 2753 2575 2939 
Q 2822 3125 2822 3475 
Q 2822 3834 2567 4026 
Q 2313 4219 1838 4219 
Q 1578 4219 1281 4162 
Q 984 4106 628 3988 
L 628 4550 
Q 988 4650 1302 4700 
Q 1616 4750 1894 4750 
Q 2613 4750 3031 4423 
Q 3450 4097 3450 3541 
Q 3450 3153 3228 2886 
Q 3006 2619 2597 2516 
z
" transform="scale(0.015625)"/>
       </defs>
       <use xlink:href="#DejaVuSans-33"/>
      </g>
     </g>
    </g>
    <g id="text_15">
     <!-- Niño 3.4 SST anomaly (°C) -->
     <g transform="translate(14.96875 227.454063) rotate(-90) scale(0.1 -0.1)">
      <defs>
       <path id="DejaVuSans-4e" d="M 628 4666 
L 1478 4666 
L 3547 763 
L 3547 4666 
L 4159 4666 
L 4159 0 
L 3309 0 
L 1241 3903 
L 1241 0 
L 628 0 
L 628 4666 
z
" transform="scale(0.015625)"/>
       <path id="DejaVuSans-69" d="M 603 3500 
L 1178 3500 
L 1178 0 
L 603 0 
L 603 3500 
z
M 603 4863 
L 1178 4863 
L 1178 4134 
L 603 4134 
L 603 4863 
z
" transform="scale(0.015625)"/>
       <path id="DejaVuSans-f1" d="M 3513 2113 
L 3513 0 
L 2938 0 
L 2938 2094 
Q 2938 2591 2744 2837 
Q 2550 3084 2163 3084 
Q 1697 3084 1428 2787 
Q 1159 2491 1159 1978 
L 1159 0 
L 581 0 
L 581 3500 
L 1159 3500 
L 1159 2956 
Q 1366 3272 1645 3428 
Q 1925 3584 2291 3584 
Q 2894 3584 3203 3211 
Q 3513 2838 3513 2113 
z
M 2063 4281 
L 1884 4453 
Q 1816 4516 1764 4545 
Q 1713 4575 1672 4575 
Q 1553 4575 1497 4461 
Q 1441 4347 1434 4091 
L 1044 4091 
Q 1050 4513 1209 4742 
Q 1369 4972 1653 4972 
Q 1772 4972 1872 4928 
Q 1972 4884 2088 4781 
L 2266 4609 
Q 2334 4547 2386 4517 
Q 2438 4488 2478 4488 
Q 2597 4488 2653 4602 
Q 2709 4716 2716 4972 
L 3106 4972 
Q 3100 4550 2940 4320 
Q 2781 4091 2497 4091 
Q 2378 4091 2278 4134 
Q 2178 4178 2063 4281 
z
" transform="scale(0.015625)"/>
       <path id="DejaVuSans-6f" d="M 1959 3097 
Q 1497 3097 1228 2736 
Q 959 2375 959 1747 
Q 959 1119 1226 758 
Q 1494 397 1959 397 
Q 2419 397 2687 759 
Q 2956 1122 2956 1747 
Q 2956 2369 2687 2733 
Q 2419 3097 1959 3097 
z
M 1959 3584 
Q 2709 3584 3137 3096 
Q 3566 2609 3566 1747 
Q 3566 888 3137 398 
Q 2709 -91 1959 -91 
Q 1206 -91 779 398 
Q 353 888 353 1747 
Q 353 2609 779 3096 
Q 1206 3584 1959 3584 
z
" transform="scale(0.015625)"/>
       <path id="DejaVuSans-20" transform="scale(0.015625)"/>
       <path id="DejaVuSans-2e" d="M 684 794 
L 1344 794 
L 1344 0 
L 684 0 
L 684 794 
z
" transform="scale(0.015625)"/>
       <path id="DejaVuSans-53" d="M 3425 4513 
L 3425 3897 
Q 3066 4069 2747 4153 
Q 2428 4238 2131 4238 
Q 1616 4238 1336 4038 
Q 1056 3838 1056 3469 
Q 1056 3159 1242 3001 
Q 1428 2844 1947 2747 
L 2328 2669 
Q 3034 2534 3370 2195 
Q 3706 1856 3706 1288 
Q 3706 609 3251 259 
Q 2797 -91 1919 -91 
Q 1588 -91 1214 -16 
Q 841 59 441 206 
L 441 856 
Q 825 641 1194 531 
Q 1563 422 1919 422 
Q 2459 422 2753 634 
Q 3047 847 3047 1241 
Q 3047 1584 2836 1778 
Q 2625 1972 2144 2069 
L 1759 2144 
Q 1053 2284 737 2584 
Q 422 2884 422 3419 
Q 422 4038 858 4394 
Q 1294 4750 2059 4750 
Q 2388 4750 2728 4690 
Q 3069 4631 3425 4513 
z
" transform="scale(0.015625)"/>
       <path id="DejaVuSans-54" d="M -19 4666 
L 3928 4666 
L 3928 4134 
L 2272 4134 
L 2272 0 
L 1638 0 
L 1638 4134 
L -19 4134 
L -19 4666 
z
" transform="scale(0.015625)"/>
       <path id="DejaVuSans-61" d="M 2194 1759 
Q 1497 1759 1228 1600 
Q 959 1441 959 1056 
Q 959 750 1161 570 
Q 1363 391 1709 391 
Q 2188 391 2477 730 
Q 2766 1069 2766 1631 
L 2766 1759 
L 2194 1759 
z
M 3341 1997 
L 3341 0 
L 2766 0 
L 2766 531 
Q 2569 213 2275 61 
Q 1981 -91 1556 -91 
Q 1019 -91 701 211 
Q 384 513 384 1019 
Q 384 1609 779 1909 
Q 1175 2209 1959 2209 
L 2766 2209 
L 2766 2266 
Q 2766 2663 2505 2880 
Q 2244 3097 1772 3097 
Q 1472 3097 1187 3025 
Q 903 2953 641 2809 
L 641 3341 
Q 956 3463 1253 3523 
Q 1550 3584 1831 3584 
Q 2591 3584 2966 3190 
Q 3341 2797 3341 1997 
z
" transform="scale(0.015625)"/>
       <path id="DejaVuSans-6e" d="M 3513 2113 
L 3513 0 
L 2938 0 
L 2938 2094 
Q 2938 2591 2744 2837 
Q 2550 3084 2163 3084 
Q 1697 3084 1428 2787 
Q 1159 2491 1159 1978 
L 1159 0 
L 581 0 
L 581 3500 
L 1159 3500 
L 1159 2956 
Q 1366 3272 1645 3428 
Q 1925 3584 2291 3584 
Q 2894 3584 3203 3211 
Q 3513 2838 3513 2113 
z
" transform="scale(0.015625)"/>
       <path id="DejaVuSans-6d" d="M 3328 2828 
Q 3544 3216 3844 3400 
Q 4144 3584 4550 3584 
Q 5097 3584 5394 3201 
Q 5691 2819 5691 2113 
L 5691 0 
L 5113 0 
L 5113 2094 
Q 5113 2597 4934 2840 
Q 4756 3084 4391 3084 
Q 3944 3084 3684 2787 
Q 3425 2491 3425 1978 
L 3425 0 
L 2847 0 
L 2847 2094 
Q 2847 2600 2669 2842 
Q 2491 3084 2119 3084 
Q 1678 3084 1418 2786 
Q 1159 2488 1159 1978 
L 1159 0 
L 581 0 
L 581 3500 
L 1159 3500 
L 1159 2956 
Q 1356 3278 1631 3431 
Q 1906 3584 2284 3584 
Q 2666 3584 2933 3390 
Q 3200 3197 3328 2828 
z
" transform="scale(0.015625)"/>
       <path id="DejaVuSans-6c" d="M 603 4863 
L 1178 4863 
L 1178 0 
L 603 0 
L 603 4863 
z
" transform="scale(0.015625)"/>
       <path id="DejaVuSans-79" d="M 2059 -325 
Q 1816 -950 1584 -1140 
Q 1353 -1331 966 -1331 
L 506 -1331 
L 506 -850 
L 844 -850 
Q 1081 -850 1212 -737 
Q 1344 -625 1503 -206 
L 1606 56 
L 191 3500 
L 800 3500 
L 1894 763 
L 2988 3500 
L 3597 3500 
L 2059 -325 
z
" transform="scale(0.015625)"/>
       <path id="DejaVuSans-28" d="M 1984 4856 
Q 1566 4138 1362 3434 
Q 1159 2731 1159 2009 
Q 1159 1288 1364 580 
Q 1569 -128 1984 -844 
L 1484 -844 
Q 1016 -109 783 600 
Q 550 1309 550 2009 
Q 550 2706 781 3412 
Q 1013 4119 1484 4856 
L 1984 4856 
z
" transform="scale(0.015625)"/>
       <path id="DejaVuSans-b0" d="M 1600 4347 
Q 1350 4347 1178 4173 
Q 1006 4000 1006 3750 
Q 1006 3503 1178 3333 
Q 1350 3163 1600 3163 
Q 1850 3163 2022 3333 
Q 2194 3503 2194 3750 
Q 2194 3997 2020 4172 
Q 1847 4347 1600 4347 
z
M 1600 4750 
Q 1800 4750 1984 4673 
Q 2169 4597 2303 4453 
Q 2447 4313 2519 4134 
Q 2591 3956 2591 3750 
Q 2591 3338 2302 3052 
Q 2013 2766 1594 2766 
Q 1172 2766 890 3047 
Q 609 3328 609 3750 
Q 609 4169 896 4459 
Q 1184 4750 1600 4750 
z
" transform="scale(0.015625)"/>
       <path id="DejaVuSans-43" d="M 4122 4306 
L 4122 3641 
Q 3803 3938 3442 4084 
Q 3081 4231 2675 4231 
Q 1875 4231 1450 3742 
Q 1025 3253 1025 2328 
Q 1025 1406 1450 917 
Q 1875 428 2675 428 
Q 3081 428 3442 575 
Q 3803 722 4122 1019 
L 4122 359 
Q 3791 134 3420 21 
Q 3050 -91 2638 -91 
Q 1578 -91 968 557 
Q 359 1206 359 2328 
Q 359 3453 968 4101 
Q 1578 4750 2638 4750 
Q 3056 4750 3426 4639 
Q 3797 4528 4122 4306 
z
" transform="scale(0.015625)"/>
       <path id="DejaVuSans-29" d="M 513 4856 
L 1013 4856 
Q 1481 4119 1714 3412 
Q 1947 2706 1947 2009 
Q 1947 1309 1714 600 
Q 1481 -109 1013 -844 
L 513 -844 
Q 928 -128 1133 580 
Q 1338 1288 1338 2009 
Q 1338 2731 1133 3434 
Q 928 4138 513 4856 
z
" transform="scale(0.015625)"/>
      </defs>
      <use xlink:href="#DejaVuSans-4e"/>
      <use xlink:href="#DejaVuSans-69" transform="translate(74.804688 0)"/>
      <use xlink:href="#DejaVuSans-f1" transform="translate(102.587891 0)"/>
      <use xlink:href="#DejaVuSans-6f" transform="translate(165.966797 0)"/>
      <use xlink:href="#DejaVuSans-20" transform="translate(227.148438 0)"/>
      <use xlink:href="#DejaVuSans-33" transform="translate(258.935547 0)"/>
      <use xlink:href="#DejaVuSans-2e" transform="translate(322.558594 0)"/>
      <use xlink:href="#DejaVuSans-34" transform="translate(354.345703 0)"/>
      <use xlink:href="#DejaVuSans-20" transform="translate(417.96875 0)"/>
      <use xlink:href="#DejaVuSans-53" transform="translate(449.755859 0)"/>
      <use xlink:href="#DejaVuSans-53" transform="translate(513.232422 0)"/>
      <use xlink:href="#DejaVuSans-54" transform="translate(576.708984 0)"/>
      <use xlink:href="#DejaVuSans-20" transform="translate(637.792969 0)"/>
      <use xlink:href="#DejaVuSans-61" transform="translate(669.580078 0)"/>
      <use xlink:href="#DejaVuSans-6e" transform="translate(730.859375 0)"/>
      <use xlink:href="#DejaVuSans-6f" transform="translate(794.238281 0)"/>
      <use xlink:href="#DejaVuSans-6d" transform="translate(855.419922 0)"/>
      <use xlink:href="#DejaVuSans-61" transform="translate(952.832031 0)"/>
      <use xlink:href="#DejaVuSans-6c" transform="translate(1014.111328 0)"/>
      <use xlink:href="#DejaVuSans-79" transform="translate(1041.894531 0)"/>
      <use xlink:href="#DejaVuSans-20" transform="translate(1101.074219 0)"/>
      <use xlink:href="#DejaVuSans-28" transform="translate(1132.861328 0)"/>
      <use xlink:href="#DejaVuSans-b0" transform="translate(1171.875 0)"/>
      <use xlink:href="#DejaVuSans-43" transform="translate(1221.875 0)"/>
      <use xlink:href="#DejaVuSans-29" transform="translate(1291.699219 0)"/>
     </g>
    </g>
   </g>
   <g id="line2d_29">
    <path d="M 68.154261 120.653646 
L 70.674366 139.434352 
L 72.95059 143.853341 
L 75.470695 172.576773 
L 77.909506 211.24293 
L 80.429611 235.547372 
L 82.868422 255.985199 
L 85.388527 272.004036 
L 90.347443 283.051509 
L 92.867548 284.70863 
L 95.306359 272.004036 
L 97.826464 286.918125 
L 100.346569 270.899288 
L 102.622793 251.013836 
L 105.142898 247.14722 
L 107.581709 226.709394 
L 110.101814 222.290404 
L 112.540625 215.66192 
L 115.06073 228.366515 
L 117.580835 242.175857 
L 120.019646 244.385351 
L 122.539751 259.299441 
L 124.978562 259.851815 
L 127.498667 241.071109 
L 130.018772 235.547372 
L 132.376289 229.471262 
L 134.896394 233.337878 
L 137.335205 215.66192 
L 139.85531 191.909851 
L 142.294122 190.25273 
L 144.814226 167.605409 
L 147.334331 180.862378 
L 149.773142 185.281367 
L 152.293247 177.548136 
L 154.732059 231.128383 
L 157.252163 231.680757 
L 159.772268 231.680757 
L 162.048492 217.319041 
L 164.568597 199.090709 
L 167.007408 221.73803 
L 169.527513 223.947525 
L 171.966324 219.528536 
L 174.486429 231.128383 
L 177.006534 202.404951 
L 179.445345 213.452425 
L 181.96545 210.138183 
L 184.404261 215.109546 
L 186.924366 232.23313 
L 189.444471 252.118583 
L 191.720695 223.947525 
L 194.2408 195.224094 
L 196.679611 180.310004 
L 199.199716 179.205257 
L 201.638527 206.823941 
L 204.158632 205.719194 
L 206.678737 188.043236 
L 209.117548 181.414752 
L 211.637653 163.738794 
L 216.596569 176.995762 
L 219.116674 163.738794 
L 221.392898 180.862378 
L 223.913003 159.872178 
L 226.351814 159.319804 
L 228.871919 148.824704 
L 231.31073 135.567736 
L 233.830835 114.025162 
L 236.35094 106.291931 
L 238.789751 83.092236 
L 241.309856 54.921178 
L 243.748667 73.14951 
L 246.268772 68.73052 
L 248.788877 81.987489 
L 251.146394 116.234657 
L 253.666499 151.034199 
L 256.10531 190.25273 
L 258.625415 204.062073 
L 261.064226 228.366515 
L 263.584331 232.23313 
L 266.104436 228.918888 
L 268.543247 243.832978 
L 271.063352 240.518736 
L 273.502163 223.395151 
L 276.022268 219.528536 
L 278.542373 199.643083 
L 280.818597 193.566973 
L 283.338702 185.281367 
L 285.777513 181.967125 
L 288.297618 183.624246 
L 290.736429 189.700357 
L 293.256534 208.481062 
L 295.776639 222.842778 
L 298.21545 225.604646 
L 300.735555 255.432825 
L 303.174366 256.537572 
L 305.694471 243.832978 
L 308.214576 242.175857 
L 310.4908 245.490099 
L 313.010905 232.23313 
L 315.449716 211.24293 
L 317.969821 196.881215 
L 320.408632 193.014599 
L 322.928737 189.700357 
L 325.448842 186.938488 
L 327.887653 157.662683 
L 330.407758 157.662683 
L 332.846569 155.453188 
L 335.366674 168.157783 
L 337.886779 165.948288 
L 340.163003 151.586573 
L 342.683108 165.395915 
L 345.121919 163.738794 
L 347.642024 172.024399 
L 350.080835 181.967125 
L 352.60094 196.881215 
L 355.121045 205.719194 
L 357.559856 176.443388 
L 360.079961 179.75763 
L 362.518772 180.862378 
L 365.038877 176.443388 
L 367.558982 185.833741 
L 369.916499 179.75763 
L 372.436604 182.519499 
L 374.875415 216.766667 
L 377.39552 220.080909 
L 379.834331 212.900051 
L 382.354436 233.890251 
L 384.874541 240.518736 
L 387.313352 267.585046 
L 389.833457 273.108783 
L 392.272268 259.851815 
L 394.792373 254.880451 
L 397.312478 253.22333 
L 399.588702 235.547372 
L 402.108807 236.65212 
L 404.547618 222.842778 
L 407.067723 207.376315 
L 409.506534 215.66192 
L 412.026639 220.633283 
L 414.546744 220.080909 
L 416.985555 247.699593 
L 419.50566 252.118583 
L 421.944471 263.166057 
L 424.464576 251.013836 
L 426.984681 244.385351 
L 429.260905 254.328078 
L 431.78101 257.64232 
L 434.219821 263.166057 
L 436.739926 242.72823 
L 439.178737 239.413988 
L 441.698842 259.299441 
L 444.218947 256.537572 
L 446.657758 252.118583 
L 449.177863 256.537572 
L 451.616674 251.566209 
L 454.136779 243.280604 
L 456.656884 229.471262 
L 458.933108 205.719194 
L 461.453212 194.67172 
L 463.892024 179.205257 
L 466.412128 156.557936 
L 468.85094 146.062836 
L 473.891149 120.653646 
L 476.329961 117.339404 
L 478.850066 100.21582 
L 481.288877 95.244457 
L 483.808982 106.844304 
L 486.329087 120.653646 
L 488.686604 136.672483 
L 491.206709 160.424552 
L 493.64552 188.043236 
L 496.165625 191.909851 
L 498.604436 193.566973 
L 501.124541 209.033436 
L 503.644646 213.452425 
L 506.083457 220.633283 
L 508.603562 212.900051 
L 511.042373 239.413988 
L 513.562478 244.385351 
L 516.082583 224.499899 
L 518.358807 199.643083 
L 520.878912 214.004799 
L 523.317723 207.376315 
L 525.837828 202.957325 
L 528.276639 208.481062 
L 530.796744 223.395151 
L 533.316849 229.471262 
L 535.75566 231.680757 
L 538.275765 242.72823 
L 543.234681 234.994999 
L 545.754786 216.214294 
L 548.03101 203.509699 
L 548.03101 203.509699 
" clip-path="url(#pc43946bcdc)" style="fill: none; stroke: #eaf4ff; stroke-width: 1.5; stroke-linecap: square"/>
   </g>
   <g id="line2d_30">
    <path d="M 550.551115 179.205257 
L 552.989926 151.53805 
L 555.510031 130.262918 
L 557.948842 105.697529 
L 560.468947 79.378456 
L 562.989052 62.337879 
L 565.427863 51.867658 
L 567.947968 35.49198 
L 570.386779 34.918125 
L 572.906884 50.861231 
L 575.426989 76.318403 
" clip-path="url(#pc43946bcdc)" style="fill: none; stroke-dasharray: 5.55,2.4; stroke-dashoffset: 0; stroke: #eaf4ff; stroke-width: 1.5"/>
   </g>
   <g id="line2d_31">
    <path d="M 550.551115 205.857287 
L 552.989926 215.040499 
L 555.510031 214.833359 
L 557.948842 220.771376 
L 560.468947 234.787859 
L 562.989052 239.759222 
L 565.427863 249.494808 
L 567.947968 258.0566 
L 570.386779 253.154284 
" clip-path="url(#pc43946bcdc)" style="fill: none; stroke: #1f77b4; stroke-width: 1.5; stroke-linecap: square"/>
   </g>
   <g id="line2d_32">
    <path d="M 550.551115 189.562263 
L 552.989926 197.295495 
L 555.510031 194.947907 
L 557.948842 196.328841 
L 560.468947 201.162111 
L 562.989052 200.609737 
L 565.427863 198.952616 
L 567.947968 195.086 
L 570.386779 216.628574 
" clip-path="url(#pc43946bcdc)" style="fill: none; stroke: #2ca02c; stroke-width: 1.5; stroke-linecap: square"/>
   </g>
   <g id="line2d_33">
    <path d="M 550.551115 195.50028 
L 552.989926 182.519499 
L 555.510031 170.367278 
L 557.948842 170.367278 
L 560.468947 160.700738 
L 562.989052 150.481825 
L 565.427863 134.877269 
L 567.947968 119.134619 
L 570.386779 123.553608 
" clip-path="url(#pc43946bcdc)" style="fill: none; stroke: #d62728; stroke-width: 1.5; stroke-linecap: square"/>
   </g>
   <g id="patch_3">
    <path d="M 42.790625 299.518125 
L 42.790625 22.318125 
" style="fill: none; stroke: #eaf4ff; stroke-width: 0.8; stroke-linejoin: miter; stroke-linecap: square"/>
   </g>
   <g id="patch_4">
    <path d="M 600.790625 299.518125 
L 600.790625 22.318125 
" style="fill: none; stroke: #eaf4ff; stroke-width: 0.8; stroke-linejoin: miter; stroke-linecap: square"/>
   </g>
   <g id="patch_5">
    <path d="M 42.790625 299.518125 
L 600.790625 299.518125 
" style="fill: none; stroke: #eaf4ff; stroke-width: 0.8; stroke-linejoin: miter; stroke-linecap: square"/>
   </g>
   <g id="patch_6">
    <path d="M 42.790625 22.318125 
L 600.790625 22.318125 
" style="fill: none; stroke: #eaf4ff; stroke-width: 0.8; stroke-linejoin: miter; stroke-linecap: square"/>
   </g>
   <g id="text_16">
        <g transform="translate(158.282187 16.318125) scale(0.12 -0.12)">
     <defs>
      <path id="DejaVuSans-46" d="M 628 4666 
L 3309 4666 
L 3309 4134 
L 1259 4134 
L 1259 2759 
L 3109 2759 
L 3109 2228 
L 1259 2228 
L 1259 0 
L 628 0 
L 628 4666 
z
" transform="scale(0.015625)"/>
      <path id="DejaVuSans-72" d="M 2631 2963 
Q 2534 3019 2420 3045 
Q 2306 3072 2169 3072 
Q 1681 3072 1420 2755 
Q 1159 2438 1159 1844 
L 1159 0 
L 581 0 
L 581 3500 
L 1159 3500 
L 1159 2956 
Q 1341 3275 1631 3429 
Q 1922 3584 2338 3584 
Q 2397 3584 2469 3576 
Q 2541 3569 2628 3553 
L 2631 2963 
z
" transform="scale(0.015625)"/>
      <path id="DejaVuSans-65" d="M 3597 1894 
L 3597 1613 
L 953 1613 
Q 991 1019 1311 708 
Q 1631 397 2203 397 
Q 2534 397 2845 478 
Q 3156 559 3463 722 
L 3463 178 
Q 3153 47 2828 -22 
Q 2503 -91 2169 -91 
Q 1331 -91 842 396 
Q 353 884 353 1716 
Q 353 2575 817 3079 
Q 1281 3584 2069 3584 
Q 2775 3584 3186 3129 
Q 3597 2675 3597 1894 
z
M 3022 2063 
Q 3016 2534 2758 2815 
Q 2500 3097 2075 3097 
Q 1594 3097 1305 2825 
Q 1016 2553 972 2059 
L 3022 2063 
z
" transform="scale(0.015625)"/>
      <path id="DejaVuSans-63" d="M 3122 3366 
L 3122 2828 
Q 2878 2963 2633 3030 
Q 2388 3097 2138 3097 
Q 1578 3097 1268 2742 
Q 959 2388 959 1747 
Q 959 1106 1268 751 
Q 1578 397 2138 397 
Q 2388 397 2633 464 
Q 2878 531 3122 666 
L 3122 134 
Q 2881 22 2623 -34 
Q 2366 -91 2075 -91 
Q 1284 -91 818 406 
Q 353 903 353 1747 
Q 353 2603 823 3093 
Q 1294 3584 2113 3584 
Q 2378 3584 2631 3529 
Q 2884 3475 3122 3366 
z
" transform="scale(0.015625)"/>
      <path id="DejaVuSans-73" d="M 2834 3397 
L 2834 2853 
Q 2591 2978 2328 3040 
Q 2066 3103 1784 3103 
Q 1356 3103 1142 2972 
Q 928 2841 928 2578 
Q 928 2378 1081 2264 
Q 1234 2150 1697 2047 
L 1894 2003 
Q 2506 1872 2764 1633 
Q 3022 1394 3022 966 
Q 3022 478 2636 193 
Q 2250 -91 1575 -91 
Q 1294 -91 989 -36 
Q 684 19 347 128 
L 347 722 
Q 666 556 975 473 
Q 1284 391 1588 391 
Q 1994 391 2212 530 
Q 2431 669 2431 922 
Q 2431 1156 2273 1281 
Q 2116 1406 1581 1522 
L 1381 1569 
Q 847 1681 609 1914 
Q 372 2147 372 2553 
Q 372 3047 722 3315 
Q 1072 3584 1716 3584 
Q 2034 3584 2315 3537 
Q 2597 3491 2834 3397 
z
" transform="scale(0.015625)"/>
      <path id="DejaVuSans-74" d="M 1172 4494 
L 1172 3500 
L 2356 3500 
L 2356 3053 
L 1172 3053 
L 1172 1153 
Q 1172 725 1289 603 
Q 1406 481 1766 481 
L 2356 481 
L 2356 0 
L 1766 0 
Q 1100 0 847 248 
Q 594 497 594 1153 
L 594 3053 
L 172 3053 
L 172 3500 
L 594 3500 
L 594 4494 
L 1172 4494 
z
" transform="scale(0.015625)"/>
      <path id="DejaVuSans-76" d="M 191 3500 
L 800 3500 
L 1894 563 
L 2988 3500 
L 3597 3500 
L 2284 0 
L 1503 0 
L 191 3500 
z
" transform="scale(0.015625)"/>
      <path id="DejaVuSans-e9" d="M 3597 1894 
L 3597 1613 
L 953 1613 
Q 991 1019 1311 708 
Q 1631 397 2203 397 
Q 2534 397 2845 478 
Q 3156 559 3463 722 
L 3463 178 
Q 3153 47 2828 -22 
Q 2503 -91 2169 -91 
Q 1331 -91 842 396 
Q 353 884 353 1716 
Q 353 2575 817 3079 
Q 1281 3584 2069 3584 
Q 2775 3584 3186 3129 
Q 3597 2675 3597 1894 
z
M 3022 2063 
Q 3016 2534 2758 2815 
Q 2500 3097 2075 3097 
Q 1594 3097 1305 2825 
Q 1016 2553 972 2059 
L 3022 2063 
z
M 2469 5119 
L 3091 5119 
L 2072 3944 
L 1594 3944 
L 2469 5119 
z
" transform="scale(0.015625)"/>
      <path id="DejaVuSans-64" d="M 2906 2969 
L 2906 4863 
L 3481 4863 
L 3481 0 
L 2906 0 
L 2906 525 
Q 2725 213 2448 61 
Q 2172 -91 1784 -91 
Q 1150 -91 751 415 
Q 353 922 353 1747 
Q 353 2572 751 3078 
Q 1150 3584 1784 3584 
Q 2172 3584 2448 3432 
Q 2725 3281 2906 2969 
z
M 947 1747 
Q 947 1113 1208 752 
Q 1469 391 1925 391 
Q 2381 391 2643 752 
Q 2906 1113 2906 1747 
Q 2906 2381 2643 2742 
Q 2381 3103 1925 3103 
Q 1469 3103 1208 2742 
Q 947 2381 947 1747 
z
" transform="scale(0.015625)"/>
     </defs>
     <use xlink:href="#DejaVuSans-46"/>
     <use xlink:href="#DejaVuSans-6f" transform="translate(53.894531 0)"/>
     <use xlink:href="#DejaVuSans-72" transform="translate(115.076172 0)"/>
     <use xlink:href="#DejaVuSans-65" transform="translate(153.939453 0)"/>
     <use xlink:href="#DejaVuSans-63" transform="translate(215.462891 0)"/>
     <use xlink:href="#DejaVuSans-61" transform="translate(270.443359 0)"/>
     <use xlink:href="#DejaVuSans-73" transform="translate(331.722656 0)"/>
     <use xlink:href="#DejaVuSans-74" transform="translate(383.822266 0)"/>
     <use xlink:href="#DejaVuSans-20" transform="translate(423.03125 0)"/>
     <use xlink:href="#DejaVuSans-76" transform="translate(454.818359 0)"/>
     <use xlink:href="#DejaVuSans-73" transform="translate(513.998047 0)"/>
     <use xlink:href="#DejaVuSans-20" transform="translate(566.097656 0)"/>
     <use xlink:href="#DejaVuSans-6d" transform="translate(597.884766 0)"/>
     <use xlink:href="#DejaVuSans-e9" transform="translate(695.296875 0)"/>
     <use xlink:href="#DejaVuSans-64" transform="translate(756.820312 0)"/>
     <use xlink:href="#DejaVuSans-69" transform="translate(820.296875 0)"/>
     <use xlink:href="#DejaVuSans-61" transform="translate(848.080078 0)"/>
     <use xlink:href="#DejaVuSans-20" transform="translate(909.359375 0)"/>
     <use xlink:href="#DejaVuSans-64" transform="translate(941.146484 0)"/>
     <use xlink:href="#DejaVuSans-6f" transform="translate(1004.623047 0)"/>
     <use xlink:href="#DejaVuSans-73" transform="translate(1065.804688 0)"/>
     <use xlink:href="#DejaVuSans-20" transform="translate(1117.904297 0)"/>
     <use xlink:href="#DejaVuSans-61" transform="translate(1149.691406 0)"/>
     <use xlink:href="#DejaVuSans-6e" transform="translate(1210.970703 0)"/>
     <use xlink:href="#DejaVuSans-6f" transform="translate(1274.349609 0)"/>
     <use xlink:href="#DejaVuSans-73" transform="translate(1335.53125 0)"/>
     <use xlink:href="#DejaVuSans-20" transform="translate(1387.630859 0)"/>
     <use xlink:href="#DejaVuSans-61" transform="translate(1419.417969 0)"/>
     <use xlink:href="#DejaVuSans-6e" transform="translate(1480.697266 0)"/>
     <use xlink:href="#DejaVuSans-74" transform="translate(1544.076172 0)"/>
     <use xlink:href="#DejaVuSans-65" transform="translate(1583.285156 0)"/>
     <use xlink:href="#DejaVuSans-72" transform="translate(1644.808594 0)"/>
     <use xlink:href="#DejaVuSans-69" transform="translate(1685.921875 0)"/>
     <use xlink:href="#DejaVuSans-6f" transform="translate(1713.705078 0)"/>
     <use xlink:href="#DejaVuSans-72" transform="translate(1774.886719 0)"/>
     <use xlink:href="#DejaVuSans-65" transform="translate(1813.75 0)"/>
     <use xlink:href="#DejaVuSans-73" transform="translate(1875.273438 0)"/>
     <use xlink:href="#DejaVuSans-20" transform="translate(1927.373047 0)"/>
     <use xlink:href="#DejaVuSans-6e" transform="translate(1959.160156 0)"/>
     <use xlink:href="#DejaVuSans-6f" transform="translate(2022.539062 0)"/>
     <use xlink:href="#DejaVuSans-20" transform="translate(2083.720703 0)"/>
     <use xlink:href="#DejaVuSans-32" transform="translate(2115.507812 0)"/>
     <use xlink:href="#DejaVuSans-b0" transform="translate(2179.130859 0)"/>
     <use xlink:href="#DejaVuSans-20" transform="translate(2229.130859 0)"/>
     <use xlink:href="#DejaVuSans-73" transform="translate(2260.917969 0)"/>
     <use xlink:href="#DejaVuSans-65" transform="translate(2313.017578 0)"/>
     <use xlink:href="#DejaVuSans-6d" transform="translate(2374.541016 0)"/>
     <use xlink:href="#DejaVuSans-65" transform="translate(2471.953125 0)"/>
     <use xlink:href="#DejaVuSans-73" transform="translate(2533.476562 0)"/>
     <use xlink:href="#DejaVuSans-74" transform="translate(2585.576172 0)"/>
     <use xlink:href="#DejaVuSans-72" transform="translate(2624.785156 0)"/>
     <use xlink:href="#DejaVuSans-65" transform="translate(2663.648438 0)"/>
    </g>
   </g>
   <g id="legend_1">
    <g id="patch_7">
     <path d="M 49.790625 89.030625 
L 248.63125 89.030625 
Q 250.63125 89.030625 250.63125 87.030625 
L 250.63125 29.318125 
Q 250.63125 27.318125 248.63125 27.318125 
L 49.790625 27.318125 
Q 47.790625 27.318125 47.790625 29.318125 
L 47.790625 87.030625 
Q 47.790625 89.030625 49.790625 89.030625 
z
" style="fill: #05215b; opacity: 0.88; stroke: #8ce9ff; stroke-linejoin: miter"/>
    </g>
    <g id="line2d_34">
     <path d="M 51.790625 35.416563 
L 61.790625 35.416563 
L 71.790625 35.416563 
" style="fill: none; stroke-dasharray: 5.55,2.4; stroke-dashoffset: 0; stroke: #eaf4ff; stroke-width: 1.5"/>
    </g>
    <g id="text_17">
     <!-- Forecast -->
     <g transform="translate(79.790625 38.916563) scale(0.1 -0.1)">
      <use xlink:href="#DejaVuSans-46"/>
      <use xlink:href="#DejaVuSans-6f" transform="translate(53.894531 0)"/>
      <use xlink:href="#DejaVuSans-72" transform="translate(115.076172 0)"/>
      <use xlink:href="#DejaVuSans-65" transform="translate(153.939453 0)"/>
      <use xlink:href="#DejaVuSans-63" transform="translate(215.462891 0)"/>
      <use xlink:href="#DejaVuSans-61" transform="translate(270.443359 0)"/>
      <use xlink:href="#DejaVuSans-73" transform="translate(331.722656 0)"/>
      <use xlink:href="#DejaVuSans-74" transform="translate(383.822266 0)"/>
     </g>
    </g>
    <g id="line2d_35">
     <path d="M 51.790625 50.094688 
L 61.790625 50.094688 
L 71.790625 50.094688 
" style="fill: none; stroke: #1f77b4; stroke-width: 1.5; stroke-linecap: square"/>
    </g>
    <g id="text_18">
     <!-- La Niña -->
     <g transform="translate(79.790625 53.594688) scale(0.1 -0.1)">
      <defs>
       <path id="DejaVuSans-4c" d="M 628 4666 
L 1259 4666 
L 1259 531 
L 3531 531 
L 3531 0 
L 628 0 
L 628 4666 
z
" transform="scale(0.015625)"/>
      </defs>
      <use xlink:href="#DejaVuSans-4c"/>
      <use xlink:href="#DejaVuSans-61" transform="translate(55.712891 0)"/>
      <use xlink:href="#DejaVuSans-20" transform="translate(116.992188 0)"/>
      <use xlink:href="#DejaVuSans-4e" transform="translate(148.779297 0)"/>
      <use xlink:href="#DejaVuSans-69" transform="translate(223.583984 0)"/>
      <use xlink:href="#DejaVuSans-f1" transform="translate(251.367188 0)"/>
      <use xlink:href="#DejaVuSans-61" transform="translate(314.746094 0)"/>
     </g>
    </g>
    <g id="line2d_36">
     <path d="M 51.790625 64.772813 
L 61.790625 64.772813 
L 71.790625 64.772813 
" style="fill: none; stroke: #2ca02c; stroke-width: 1.5; stroke-linecap: square"/>
    </g>
    <g id="text_19">
     <!-- Neutro (2012, 2013, 2019, 2024) -->
     <g transform="translate(79.790625 68.272813) scale(0.1 -0.1)">
      <defs>
       <path id="DejaVuSans-75" d="M 544 1381 
L 544 3500 
L 1119 3500 
L 1119 1403 
Q 1119 906 1312 657 
Q 1506 409 1894 409 
Q 2359 409 2629 706 
Q 2900 1003 2900 1516 
L 2900 3500 
L 3475 3500 
L 3475 0 
L 2900 0 
L 2900 538 
Q 2691 219 2414 64 
Q 2138 -91 1772 -91 
Q 1169 -91 856 284 
Q 544 659 544 1381 
z
M 1991 3584 
L 1991 3584 
z
" transform="scale(0.015625)"/>
       <path id="DejaVuSans-2c" d="M 750 794 
L 1409 794 
L 1409 256 
L 897 -744 
L 494 -744 
L 750 256 
L 750 794 
z
" transform="scale(0.015625)"/>
       <path id="DejaVuSans-39" d="M 703 97 
L 703 672 
Q 941 559 1184 500 
Q 1428 441 1663 441 
Q 2288 441 2617 861 
Q 2947 1281 2994 2138 
Q 2813 1869 2534 1725 
Q 2256 1581 1919 1581 
Q 1219 1581 811 2004 
Q 403 2428 403 3163 
Q 403 3881 828 4315 
Q 1253 4750 1959 4750 
Q 2769 4750 3195 4129 
Q 3622 3509 3622 2328 
Q 3622 1225 3098 567 
Q 2575 -91 1691 -91 
Q 1453 -91 1209 -44 
Q 966 3 703 97 
z
M 1959 2075 
Q 2384 2075 2632 2365 
Q 2881 2656 2881 3163 
Q 2881 3666 2632 3958 
Q 2384 4250 1959 4250 
Q 1534 4250 1286 3958 
Q 1038 3666 1038 3163 
Q 1038 2656 1286 2365 
Q 1534 2075 1959 2075 
z
" transform="scale(0.015625)"/>
      </defs>
      <use xlink:href="#DejaVuSans-4e"/>
      <use xlink:href="#DejaVuSans-65" transform="translate(74.804688 0)"/>
      <use xlink:href="#DejaVuSans-75" transform="translate(136.328125 0)"/>
      <use xlink:href="#DejaVuSans-74" transform="translate(199.707031 0)"/>
      <use xlink:href="#DejaVuSans-72" transform="translate(238.916016 0)"/>
      <use xlink:href="#DejaVuSans-6f" transform="translate(277.779297 0)"/>
      <use xlink:href="#DejaVuSans-20" transform="translate(338.960938 0)"/>
      <use xlink:href="#DejaVuSans-28" transform="translate(370.748047 0)"/>
      <use xlink:href="#DejaVuSans-32" transform="translate(409.761719 0)"/>
      <use xlink:href="#DejaVuSans-30" transform="translate(473.384766 0)"/>
      <use xlink:href="#DejaVuSans-31" transform="translate(537.007812 0)"/>
      <use xlink:href="#DejaVuSans-32" transform="translate(600.630859 0)"/>
      <use xlink:href="#DejaVuSans-2c" transform="translate(664.253906 0)"/>
      <use xlink:href="#DejaVuSans-20" transform="translate(696.041016 0)"/>
      <use xlink:href="#DejaVuSans-32" transform="translate(727.828125 0)"/>
      <use xlink:href="#DejaVuSans-30" transform="translate(791.451172 0)"/>
      <use xlink:href="#DejaVuSans-31" transform="translate(855.074219 0)"/>
      <use xlink:href="#DejaVuSans-33" transform="translate(918.697266 0)"/>
      <use xlink:href="#DejaVuSans-2c" transform="translate(982.320312 0)"/>
      <use xlink:href="#DejaVuSans-20" transform="translate(1014.107422 0)"/>
      <use xlink:href="#DejaVuSans-32" transform="translate(1045.894531 0)"/>
      <use xlink:href="#DejaVuSans-30" transform="translate(1109.517578 0)"/>
      <use xlink:href="#DejaVuSans-31" transform="translate(1173.140625 0)"/>
      <use xlink:href="#DejaVuSans-39" transform="translate(1236.763672 0)"/>
      <use xlink:href="#DejaVuSans-2c" transform="translate(1300.386719 0)"/>
      <use xlink:href="#DejaVuSans-20" transform="translate(1332.173828 0)"/>
      <use xlink:href="#DejaVuSans-32" transform="translate(1363.960938 0)"/>
      <use xlink:href="#DejaVuSans-30" transform="translate(1427.583984 0)"/>
      <use xlink:href="#DejaVuSans-32" transform="translate(1491.207031 0)"/>
      <use xlink:href="#DejaVuSans-34" transform="translate(1554.830078 0)"/>
      <use xlink:href="#DejaVuSans-29" transform="translate(1618.453125 0)"/>
     </g>
    </g>
    <g id="line2d_37">
     <path d="M 51.790625 79.450938 
L 61.790625 79.450938 
L 71.790625 79.450938 
" style="fill: none; stroke: #d62728; stroke-width: 1.5; stroke-linecap: square"/>
    </g>
    <g id="text_20">
     <!-- El Niño (2014, 2015, 2018, 2023) -->
     <g transform="translate(79.790625 82.950938) scale(0.1 -0.1)">
      <defs>
       <path id="DejaVuSans-45" d="M 628 4666 
L 3578 4666 
L 3578 4134 
L 1259 4134 
L 1259 2753 
L 3481 2753 
L 3481 2222 
L 1259 2222 
L 1259 531 
L 3634 531 
L 3634 0 
L 628 0 
L 628 4666 
z
" transform="scale(0.015625)"/>
       <path id="DejaVuSans-35" d="M 691 4666 
L 3169 4666 
L 3169 4134 
L 1269 4134 
L 1269 2991 
Q 1406 3038 1543 3061 
Q 1681 3084 1819 3084 
Q 2600 3084 3056 2656 
Q 3513 2228 3513 1497 
Q 3513 744 3044 326 
Q 2575 -91 1722 -91 
Q 1428 -91 1123 -41 
Q 819 9 494 109 
L 494 744 
Q 775 591 1075 516 
Q 1375 441 1709 441 
Q 2250 441 2565 725 
Q 2881 1009 2881 1497 
Q 2881 1984 2565 2268 
Q 2250 2553 1709 2553 
Q 1456 2553 1204 2497 
Q 953 2441 691 2322 
L 691 4666 
z
" transform="scale(0.015625)"/>
      </defs>
      <use xlink:href="#DejaVuSans-45"/>
      <use xlink:href="#DejaVuSans-6c" transform="translate(63.183594 0)"/>
      <use xlink:href="#DejaVuSans-20" transform="translate(90.966797 0)"/>
      <use xlink:href="#DejaVuSans-4e" transform="translate(122.753906 0)"/>
      <use xlink:href="#DejaVuSans-69" transform="translate(197.558594 0)"/>
      <use xlink:href="#DejaVuSans-f1" transform="translate(225.341797 0)"/>
      <use xlink:href="#DejaVuSans-6f" transform="translate(288.720703 0)"/>
      <use xlink:href="#DejaVuSans-20" transform="translate(349.902344 0)"/>
      <use xlink:href="#DejaVuSans-28" transform="translate(381.689453 0)"/>
      <use xlink:href="#DejaVuSans-32" transform="translate(420.703125 0)"/>
      <use xlink:href="#DejaVuSans-30" transform="translate(484.326172 0)"/>
      <use xlink:href="#DejaVuSans-31" transform="translate(547.949219 0)"/>
      <use xlink:href="#DejaVuSans-34" transform="translate(611.572266 0)"/>
      <use xlink:href="#DejaVuSans-2c" transform="translate(675.195312 0)"/>
      <use xlink:href="#DejaVuSans-20" transform="translate(706.982422 0)"/>
      <use xlink:href="#DejaVuSans-32" transform="translate(738.769531 0)"/>
      <use xlink:href="#DejaVuSans-30" transform="translate(802.392578 0)"/>
      <use xlink:href="#DejaVuSans-31" transform="translate(866.015625 0)"/>
      <use xlink:href="#DejaVuSans-35" transform="translate(929.638672 0)"/>
      <use xlink:href="#DejaVuSans-2c" transform="translate(993.261719 0)"/>
      <use xlink:href="#DejaVuSans-20" transform="translate(1025.048828 0)"/>
      <use xlink:href="#DejaVuSans-32" transform="translate(1056.835938 0)"/>
      <use xlink:href="#DejaVuSans-30" transform="translate(1120.458984 0)"/>
      <use xlink:href="#DejaVuSans-31" transform="translate(1184.082031 0)"/>
      <use xlink:href="#DejaVuSans-38" transform="translate(1247.705078 0)"/>
      <use xlink:href="#DejaVuSans-2c" transform="translate(1311.328125 0)"/>
      <use xlink:href="#DejaVuSans-20" transform="translate(1343.115234 0)"/>
      <use xlink:href="#DejaVuSans-32" transform="translate(1374.902344 0)"/>
      <use xlink:href="#DejaVuSans-30" transform="translate(1438.525391 0)"/>
      <use xlink:href="#DejaVuSans-32" transform="translate(1502.148438 0)"/>
      <use xlink:href="#DejaVuSans-33" transform="translate(1565.771484 0)"/>
      <use xlink:href="#DejaVuSans-29" transform="translate(1629.394531 0)"/>
     </g>
    </g>
   </g>
  </g>
 </g>
 <defs>
  <clipPath id="pc43946bcdc">
   <rect x="42.790625" y="22.318125" width="558" height="277.2"/>
  </clipPath>
 </defs>
</svg>
